<?xml version="1.0" encoding="utf-8"?>
<!-- Generated by IcoMoon.io -->
<!DOCTYPE svg PUBLIC "-//W3C//DTD SVG 1.1//EN" "http://www.w3.org/Graphics/SVG/1.1/DTD/svg11.dtd">
<svg version="1.1" xmlns="http://www.w3.org/2000/svg" xmlns:xlink="http://www.w3.org/1999/xlink" width="32" height="32" viewBox="0 0 32 32">
	<path d="M27.557 11.246c-2.533-5.896-6.611-10.386-8.674-9.546-3.502 1.424 2.088 8.262-15.114 15.254-1.486 0.603-1.862 3.021-1.24 4.466 0.621 1.445 2.653 2.883 4.139 2.28 0.256-0.104 1.202-0.408 1.202-0.408 1.061 1.424 2.171 0.579 2.566 1.485 0.474 1.088 1.502 3.451 1.851 4.254 0.352 0.803 1.146 1.549 1.722 1.33 0.573-0.219 2.53-0.965 3.278-1.248s0.928-0.952 0.699-1.478c-0.246-0.566-1.258-0.733-1.546-1.395-0.29-0.662-1.232-2.782-1.502-3.451-0.368-0.909 0.414-1.648 1.552-1.766 7.83-0.816 9.294 4.021 11.96 2.936 2.058-0.842 1.638-6.816-0.894-12.712zM26.675 20.81c-0.458 0.186-3.539-2.243-5.509-6.827-1.968-4.582-1.72-8.771-1.264-8.957 0.458-0.187 3.464 2.746 5.434 7.328 1.966 4.581 1.797 8.27 1.339 8.456z" fill="#000000" />
</svg>
