<?xml version="1.0" encoding="utf-8"?>
<!DOCTYPE svg PUBLIC "-//W3C//DTD SVG 1.1//EN" "http://www.w3.org/Graphics/SVG/1.1/DTD/svg11.dtd">
<svg version="1.1" xmlns="http://www.w3.org/2000/svg" xmlns:xlink="http://www.w3.org/1999/xlink" width="32" height="32" viewBox="0 0 32 32">
    <g></g>
    <path fill="#FFFFFF" d="M28.7,6.3C25.6,2.2,20.7,0,16,0c-3.5,0-6.9,1-9.7,3.3c-7,5.4-8.4,15.4-3,22.4c3.2,4.1,8,6.3,12.7,6.3
    c3.5,0,6.9-1,9.7-3.3C32.7,23.3,34.1,13.2,28.7,6.3z M29.5,19.5c-0.6-0.5-1.4-1-2.4-1.8c0.3-0.9,0.2-2.1-0.5-2.9
    c-0.9-1.3-2.7-1.5-3.9-0.8c-1.4-1.3-3-2.8-4.6-4.4c4.8-2.6,8.4-2.4,8.8-2.4c0,0.1,0.1,0.1,0.2,0.2C29.8,11,30.5,15.5,29.5,19.5z
    M20.7,23.3c-0.1-0.3-0.2-0.8-0.5-1.1c-0.9-1.1-2.5-1.4-3.7-0.7c-1.3-0.7-2.5-1.5-3.8-2.5c-0.2-0.2-0.5-0.5-0.8-0.7
    c0.8-1.3,0.9-2.9,0.1-4.2c0.1-0.1,0.3-0.3,0.5-0.5c1.3-1.3,2.5-2.2,3.7-3c1.7,1.6,3.6,3.1,5.4,4.5c-0.5,1-0.3,2.2,0.3,3.1
    c1,1.4,2.9,1.6,4.3,0.6c0.1,0,0.1-0.1,0.2-0.1c1.3,0.9,2.3,1.6,2.8,1.9c-0.3,1-0.9,2.1-1.6,3.1C26.6,24,24.2,24.3,20.7,23.3z
    M25,5.3C22.8,4.9,19.5,5,15.8,7c-1.3-1.4-2.5-2.8-3.9-4.2c1.4-0.5,2.9-0.7,4.3-0.7C19.2,2.1,22.3,3.2,25,5.3z M7.5,4.9
    c0.7-0.6,1.5-1,2.3-1.5c1,1.6,2.3,3.2,3.8,4.7c-1.3,0.9-2.5,1.9-3.9,3.3c-0.1,0.2-0.3,0.3-0.5,0.6c-0.8-0.1-1.5-0.1-2.3,0.1
    c-1.3-2.6-1.2-4.8-1-6C6.5,5.7,6.9,5.4,7.5,4.9z M4.6,8c-0.3,1.4-0.5,3.3,0.6,5.6c-1.2,1.5-1.2,3.6,0,5c0.1,0.1,0.2,0.2,0.3,0.3
    c-0.5,1.7-0.7,3.4-0.8,4.8C1.2,19,1.4,12.7,4.6,8z M24.5,27C22,28.9,19,29.8,16,29.8c-3.2,0-6.3-1.1-8.9-3.2c-0.1-1.5,0-3.9,0.9-6.3
    c0.7,0,1.3,0,2-0.3c0.3,0.3,0.7,0.7,1.2,0.9c1.4,1,2.8,1.9,4,2.6c-0.1,0.7,0.1,1.4,0.6,1.9c0.9,1.3,2.7,1.5,3.9,0.5
    c0.2-0.2,0.5-0.5,0.6-0.7c2.2,0.5,4,0.6,5.4,0.6C25.2,26.3,25,26.6,24.5,27z"/>
</svg>
